<svg width="16" height="15" viewBox="0 0 16 15" fill="none" xmlns="http://www.w3.org/2000/svg">
<g id="Vector">
<path id="Vector-52" fill-rule="evenodd" clip-rule="evenodd" d="M3.02263 1.5C2.50576 1.5015 2.05281 1.84621 1.91363 2.344L1.07863 4.592C0.826224 5.54118 1.19423 6.54689 1.99963 7.109C2.6169 7.53703 3.40429 7.63667 4.10872 7.37589C4.81316 7.11512 5.34587 6.52679 5.53563 5.8L5.70363 4.6L6.19063 1.5H3.02263Z" stroke="black" stroke-width="1.2" stroke-linecap="round" stroke-linejoin="round"/>
<path id="Vector-53" fill-rule="evenodd" clip-rule="evenodd" d="M12.8174 1.5C13.3343 1.5015 13.7872 1.84621 13.9264 2.344L14.8564 4.449C14.9009 4.54492 14.9344 4.64556 14.9564 4.749C15.1317 5.65565 14.7566 6.5805 13.9994 7.109C13.3821 7.53703 12.5947 7.63667 11.8903 7.37589C11.1859 7.11512 10.6532 6.52679 10.4634 5.8L10.2994 4.592L9.65039 1.5H12.8174Z" stroke="black" stroke-width="1.2" stroke-linecap="round" stroke-linejoin="round"/>
<path id="Vector-54" d="M6.19048 0.9C5.85911 0.9 5.59048 1.16863 5.59048 1.5C5.59048 1.83137 5.85911 2.1 6.19048 2.1V0.9ZM9.65048 2.1C9.98185 2.1 10.2505 1.83137 10.2505 1.5C10.2505 1.16863 9.98185 0.9 9.65048 0.9V2.1ZM6.29939 4.60231C6.30508 4.27099 6.04111 3.99778 5.70979 3.99209C5.37847 3.9864 5.10526 4.25037 5.09957 4.58169L6.29939 4.60231ZM5.68948 5.174L5.08948 5.16369V5.174H5.68948ZM10.3035 5.174H10.9035L10.9035 5.16988L10.3035 5.174ZM10.8995 4.58788C10.8972 4.25651 10.6267 3.98974 10.2954 3.99201C9.96399 3.99429 9.69722 4.26476 9.69949 4.59612L10.8995 4.58788ZM2.59943 7.11656C2.60361 6.78521 2.33838 6.51322 2.00704 6.50905C1.67569 6.50487 1.4037 6.7701 1.39953 7.10144L2.59943 7.11656ZM1.94448 11.476L1.34453 11.4684L1.34452 11.4688L1.94448 11.476ZM2.52171 12.9058L2.9485 12.484H2.9485L2.52171 12.9058ZM3.94448 13.5V12.9H3.94444L3.94448 13.5ZM5.92048 14.1C6.25185 14.1 6.52048 13.8314 6.52048 13.5C6.52048 13.1686 6.25185 12.9 5.92048 12.9V14.1ZM14.5994 7.11966C14.6053 6.78834 14.3415 6.51498 14.0101 6.50909C13.6788 6.50321 13.4055 6.76702 13.3996 7.09834L14.5994 7.11966ZM13.9215 11.5L13.3215 11.4893V11.5H13.9215ZM9.92148 12.9C9.59011 12.9 9.32148 13.1686 9.32148 13.5C9.32148 13.8314 9.59011 14.1 9.92148 14.1V12.9ZM5.32148 13.5C5.32148 13.8314 5.59011 14.1 5.92148 14.1C6.25285 14.1 6.52148 13.8314 6.52148 13.5H5.32148ZM9.32148 13.5C9.32148 13.8314 9.59011 14.1 9.92148 14.1C10.2529 14.1 10.5215 13.8314 10.5215 13.5H9.32148ZM5.92148 12.9C5.59011 12.9 5.32148 13.1686 5.32148 13.5C5.32148 13.8314 5.59011 14.1 5.92148 14.1V12.9ZM9.92148 14.1C10.2529 14.1 10.5215 13.8314 10.5215 13.5C10.5215 13.1686 10.2529 12.9 9.92148 12.9V14.1ZM6.19048 2.1H9.65048V0.9H6.19048V2.1ZM5.09957 4.58169L5.08957 5.16369L6.28939 5.18431L6.29939 4.60231L5.09957 4.58169ZM5.08948 5.174C5.08948 6.77949 6.39099 8.081 7.99648 8.081V6.881C7.05373 6.881 6.28948 6.11675 6.28948 5.174H5.08948ZM7.99648 8.081C9.60197 8.081 10.9035 6.77949 10.9035 5.174H9.70348C9.70348 6.11675 8.93923 6.881 7.99648 6.881V8.081ZM10.9035 5.16988L10.8995 4.58788L9.69949 4.59612L9.70349 5.17812L10.9035 5.16988ZM1.39953 7.10144L1.34453 11.4684L2.54443 11.4836L2.59943 7.11656L1.39953 7.10144ZM1.34452 11.4688C1.33618 12.1638 1.60642 12.8331 2.09493 13.3275L2.9485 12.484C2.68546 12.2178 2.53995 11.8574 2.54444 11.4832L1.34452 11.4688ZM2.09493 13.3275C2.58343 13.8218 3.24952 14.1001 3.94452 14.1L3.94444 12.9C3.5702 12.9 3.21154 12.7502 2.9485 12.484L2.09493 13.3275ZM3.94448 14.1H5.92048V12.9H3.94448V14.1ZM13.3996 7.09834L13.3216 11.4893L14.5214 11.5107L14.5994 7.11966L13.3996 7.09834ZM13.3215 11.5C13.3215 12.2732 12.6947 12.9 11.9215 12.9V14.1C13.3574 14.1 14.5215 12.9359 14.5215 11.5H13.3215ZM11.9215 12.9H9.92148V14.1H11.9215V12.9ZM6.52148 13.5V12.5H5.32148V13.5H6.52148ZM6.52148 12.5C6.52148 11.7268 7.14828 11.1 7.92148 11.1V9.9C6.48554 9.9 5.32148 11.0641 5.32148 12.5H6.52148ZM7.92148 11.1C8.69468 11.1 9.32148 11.7268 9.32148 12.5H10.5215C10.5215 11.0641 9.35742 9.9 7.92148 9.9V11.1ZM9.32148 12.5V13.5H10.5215V12.5H9.32148ZM5.92148 14.1H9.92148V12.9H5.92148V14.1Z" fill="black"/>
</g>
</svg>
